# xmcd
#
# Track frame offsets: 
#        150
#        15232
#        31175
#        48130
#        64275
#        77902
#        94525
#        109327
#        129785
#        143685
#        167632
#        183805
#        198165
#
# Disc length: 2896 seconds
#
# Revision: 1
# Processed by: cddbd v1.5.2PL0 Copyright (c) Steve Scherf et al.
# Submitted via: ExactAudioCopy v0.99pb5
#
DISCID=960b4e0d
DTITLE=Robert Nighthawk and The Wampus Cats - Toastin' The Blues
DYEAR=1995
DGENRE=Blues
TTITLE0=Wampus Boogie
TTITLE1=Baby, Baby, Baby
TTITLE2=Stone Cold Natural Blues
TTITLE3=Who Will The Next Fool Be
TTITLE4=I've Got To Find My Baby
TTITLE5=For Walter
TTITLE6=When I Hear My Old Used-To-Be's Name
TTITLE7=Think About Me Sometime
TTITLE8=Mellow Down Easy
TTITLE9=Robert's Blues
TTITLE10=Shake Yours
TTITLE11=Ode To Jimmy Smith
TTITLE12=The Mysterious Legend Of Tater Red
EXTD=
EXTT0=
EXTT1=
EXTT2=
EXTT3=
EXTT4=
EXTT5=
EXTT6=
EXTT7=
EXTT8=
EXTT9=
EXTT10=
EXTT11=
EXTT12=
PLAYORDER=
